Title:
The Painting Ala La Tableau

Country:
France/2011

Language:
French

Subtitle:
English (srt)
Spanish (srt)

Director:
Jean-François Laguionie

Writers:
Jean-François Laguionie, Anik Leray 

Synopsis:
A chateau, flowering gardens, a threatening forest, here is what, for mysterious reasons, a Painter has left incomplete. Three kinds of characters live in this painting: the Toupins, who are entirely painted, the Pafinis, who lack a few colors, and the Reufs, who are only sketches. Considering themselves superior, the Toupins take over power, chase the Pafinis from the chateau, and enslave the Reufs. Convinced that only the Painter can restore harmony by finishing the painting, Ramo, Lola, and Plume decided to go looking for him. Throughout the adventure, questions will follow one after the other: What has become of the Painter? Why did he abandon them? Why did he begin destroying some of his paintings? Will they one day know the Painter's secret?

Trivia:

Nominated César Award -	Best Animated Film (Meilleur film d'animation)


Imdb: 
http://www.imdb.com/title/tt1891769/

Trailer: 
http://www.bandes-annonces.fr/film/bande-annonce-letableau.html


Media Info:

General
Complete name                            : The.Painting.[Le.Tableau].2011.DVDRip.XviD.AC3.HORiZON-ArtSubs
Format                                   : AVI
Format/Info                              : Audio Video Interleave
File size                                : 1.06 GiB
Duration                                 : 1h 16mn
Overall bit rate                         : 1 995 Kbps

Video
ID                                       : 0
Format                                   : MPEG-4 Visual
Format profile                           : Advanced Simple@L5
Format settings, BVOP                    : 2
Format settings, QPel                    : No
Format settings, GMC                     : No warppoints
Format settings, Matrix                  : Default (H.263)
Codec ID                                 : XVID
Codec ID/Hint                            : XviD
Duration                                 : 1h 16mn
Bit rate                                 : 1 857 Kbps
Width                                    : 688 pixels
Height                                   : 384 pixels
Display aspect ratio                     : 16:9
Frame rate                               : 25.000 fps
Color space                              : YUV
Chroma subsampling                       : 4:2:0
Bit depth                                : 8 bits
Scan type                                : Progressive
Compression mode                         : Lossy
Bits/(Pixel*Frame)                       : 0.281
Stream size                              : 1 013 MiB (93%)
Writing library                          : XviD 64

Audio
ID                                       : 1
Format                                   : AC-3
Format/Info                              : Audio Coding 3
Mode extension                           : CM (complete main)
Format settings, Endianness              : Big
Codec ID                                 : 2000
Duration                                 : 1h 16mn
Source duration                          : 1h 16mn
Bit rate mode                            : Constant
Bit rate                                 : 128 Kbps
Channel(s)                               : 2 channels
Channel positions                        : Front: L R
Sampling rate                            : 44.1 KHz
Bit depth                                : 16 bits
Compression mode                         : Lossy
Stream size                              : 69.8 MiB (6%)
Alignment                                : Aligned on interleaves
Interleave, duration                     : 35 ms (0.87 video frame)

